<?xml version="1.0" encoding="utf-8"?>
<!-- Generator: Adobe Illustrator 16.0.4, SVG Export Plug-In . SVG Version: 6.00 Build 0)  -->
<!DOCTYPE svg PUBLIC "-//W3C//DTD SVG 1.1//EN" "http://www.w3.org/Graphics/SVG/1.1/DTD/svg11.dtd">
<svg version="1.1" id="Layer_2" xmlns="http://www.w3.org/2000/svg" xmlns:xlink="http://www.w3.org/1999/xlink" x="0px" y="0px"
	 width="237.917px" height="47.469px" viewBox="0 0 237.917 47.469" enable-background="new 0 0 237.917 47.469"
	 xml:space="preserve">
<g>
	<polygon fill="#FFFFFF" points="0,13.562 106,13.562 109.333,17.729 3.167,17.729 	"/>
	<polygon fill="#FFFFFF" points="144.666,13.562 234.583,13.562 237.917,17.729 147.832,17.729 	"/>
	<path fill="#FFFFFF" d="M4.854,0c0,0,4.32,1.776,6,3.312c1.915,1.751,3.479,5.083,3.479,5.083V40c0,0,0.083,1.437,0.638,1.676
		c1.061,0.458,1.962,0.993,2.904,0.861c4.75-0.665,4.458-6.375,7.018-6.514c1.5-0.082,5.691,4.873,5.691,6.123
		c0,1.168-4.312,5.322-8.291,5.322c-6.043,0-13.46-9.407-13.46-9.407V10.895c0,0-0.06-2.694-0.479-3.895
		C7.857,5.576,4.854,0,4.854,0z"/>
	<path fill="#FFFFFF" d="M108.75,0c0,0,4.319,1.776,6,3.312c1.915,1.751,3.479,5.083,3.479,5.083v38.308l-5.5-4.995V10.895
		c0,0-0.061-2.694-0.479-3.895C111.752,5.576,108.75,0,108.75,0z"/>
	<polygon fill="#FFFFFF" points="176.667,14.396 176.667,46.703 171.167,41.708 171.167,16.896 	"/>
	<path fill="#FFFFFF" d="M58.792,41.062c-3.625,1.625-24.75,5.64-21.562-7.438c1.915-7.857,16.645-9.064,18.312-5.062
		c1.875,4.5-16.5,8.375-16.5,8.375s21.25,2.5,22.75-6.75c0.55-3.39-1.853-5.715-4.438-7.054v-6.071h-5.438v4.646
		c-7.511-0.578-16.105,3.719-18.605,9.53c-3.756,8.733,4.604,14.9,9.542,15.761c9.688,1.688,19.194-2.875,19.188-4.375
		C62.036,41.35,59.955,40.541,58.792,41.062z"/>
	<path fill="#FFFFFF" d="M226.917,41.062c-3.625,1.625-24.75,5.64-21.562-7.438c1.915-7.857,16.645-9.064,18.312-5.062
		c1.875,4.5-16.5,8.375-16.5,8.375s21.25,2.5,22.75-6.75c0.55-3.39-1.853-5.715-4.438-7.054v-6.071h-5.438v4.646
		c-7.512-0.578-16.105,3.719-18.605,9.53c-3.756,8.733,4.605,14.9,9.543,15.761c9.688,1.688,19.193-2.875,19.188-4.375
		C230.161,41.35,228.081,40.541,226.917,41.062z"/>
	<path fill="#FFFFFF" d="M93.006,21.077v-4.014h-5.437v3.681c-6.338,0.649-15.902,3.972-15.902,3.972s1.151,1.952,1.833,2.084
		c3,0.583,11.224-2.506,15.167-2.5c11.099,0.017,7.151,6.714,7.151,6.714S77.175,25.861,71,32.3
		c-3.917,4.083-3.781,13.446,4.333,14.557c15.417,2.11,21.917-2.973,21.917-2.973l5.25,2.973V26.216
		C102.5,26.216,98.431,22.389,93.006,21.077z M79.402,43.472c-4.759-0.65-4.838-6.143-2.541-8.537
		c3.622-3.775,18.743-0.197,18.743,3.521C95.604,39.894,88.445,44.71,79.402,43.472z"/>
	<path fill="#FFFFFF" d="M155.167,16.812v18.581c0,0-11.113,8.129-15.57,6.644c-7.43-2.477-5.263-8.31-1.513-14.31
		c2.808-4.492,2.998-7.289,2.417-9.333c-0.426-1.497-3.92-4.832-3.92-4.832h-14.749l3.166,4.167h12.544
		c0,0-13.458,18.082-7.791,25.415c7.553,9.773,25.583-1.833,25.583-1.833l5.917,5.393v-29.89H155.167z"/>
	<path fill="#FFFFFF" d="M174.416,32.48c0,0,11.841-10.991,16.876-11c4.208-0.007,7.927,4.307,7.458,6.917
		c-0.276,1.542-4.958,3.654-4.958,3.654s-1.916-4-4.833-3.833c-3.657,0.209-10.699,4.647-13.459,5.763
		C174.868,34.235,174.416,32.48,174.416,32.48z"/>
</g>
</svg>
