<?xml version="1.0" encoding="utf-8"?>
<!-- Generator: Adobe Illustrator 16.0.4, SVG Export Plug-In . SVG Version: 6.00 Build 0)  -->
<!DOCTYPE svg PUBLIC "-//W3C//DTD SVG 1.1//EN" "http://www.w3.org/Graphics/SVG/1.1/DTD/svg11.dtd">
<svg version="1.1" id="Layer_1" xmlns="http://www.w3.org/2000/svg" xmlns:xlink="http://www.w3.org/1999/xlink" x="0px" y="0px"
	 width="91.23px" height="75.08px" viewBox="0 0 91.23 75.08" enable-background="new 0 0 91.23 75.08" xml:space="preserve">
<path d="M77.375,69.583c-2.733,2.733-7.166,2.733-9.899,0L13.572,15.68c-2.734-2.734-2.734-7.166,0-9.899l0.283-0.283
	c2.733-2.733,7.166-2.734,9.899,0L77.658,59.4c2.733,2.733,2.733,7.166,0,9.899L77.375,69.583z"/>
<path d="M13.572,69.3c-2.733-2.733-2.733-7.166,0-9.899L67.475,5.497c2.733-2.734,7.166-2.733,9.899,0l0.283,0.283
	c2.734,2.734,2.734,7.166,0,9.899L23.755,69.583c-2.733,2.733-7.166,2.733-9.899,0L13.572,69.3z"/>
</svg>
